<svg width="17" height="17" viewBox="0 0 17 17" fill="none" xmlns="http://www.w3.org/2000/svg">
<path d="M8.44326 0C6.9145 0.000282765 5.41449 0.418261 4.10324 1.20935C2.79199 2.00044 1.71868 3.13496 0.997809 4.49189C0.276936 5.84883 -0.0644616 7.37728 0.0100342 8.9142C0.08453 10.4511 0.572124 11.9389 1.42081 13.2187C2.26949 14.4986 3.44742 15.5226 4.82895 16.1814C6.21048 16.8403 7.74379 17.1093 9.26532 16.9598C10.7868 16.8103 12.2395 16.2478 13.4684 15.3325C14.6972 14.4171 15.6562 13.1832 16.2429 11.7623C16.5309 11.0653 15.8409 10.3649 15.1468 10.6488C13.957 11.1339 12.636 11.1839 11.4134 10.7903C10.1908 10.3966 9.14398 9.58411 8.45487 8.49407C7.76575 7.40402 7.47797 6.10536 7.64155 4.82388C7.80513 3.5424 8.40973 2.35915 9.35023 1.47985L9.41526 1.41185C9.88057 0.87635 9.51068 0.00680001 8.77514 0.00680001H8.55051L8.49309 0.00169998L8.44326 0Z" fill="white"/>
</svg>
