<svg width="618" height="39" viewBox="0 0 618 39" fill="none" xmlns="http://www.w3.org/2000/svg">
<g filter="url(#filter0_d_846_276)">
<mask id="path-1-outside-1_846_276" maskUnits="userSpaceOnUse" x="-6" y="-6" width="626" height="47" fill="black">
<rect fill="white" x="-6" y="-6" width="626" height="47"/>
<path d="M0 35V0H25V5H30V10H35V25H30V30H25V35H0ZM10 30H20V25H25V10H20V5H10V30ZM53.6 5V0H63.6V5H53.6ZM43.6 35V30H53.6V15H48.6V10H63.6V30H73.6V35H43.6ZM77.2 35V30H102.2V25H82.2V20H77.2V15H82.2V10H107.2V15H87.2V20H107.2V25H112.2V30H107.2V35H77.2ZM120.8 35V30H115.8V15H120.8V10H150.8V15H125.8V30H150.8V35H120.8ZM159.4 35V30H154.4V10H164.4V30H179.4V10H189.4V35H159.4ZM193 35V30H218V25H198V20H193V15H198V10H223V15H203V20H223V25H228V30H223V35H193ZM231.6 35V30H256.6V25H236.6V20H231.6V15H236.6V10H261.6V15H241.6V20H261.6V25H266.6V30H261.6V35H231.6ZM285.2 5V0H295.2V5H285.2ZM275.2 35V30H285.2V15H280.2V10H295.2V30H305.2V35H275.2ZM313.8 35V30H308.8V15H313.8V10H338.8V15H343.8V30H338.8V35H313.8ZM318.8 30H333.8V15H318.8V30ZM347.4 35V10H377.4V15H382.4V35H372.4V15H357.4V35H347.4ZM424.6 35V0H459.6V5H434.6V15H454.6V20H434.6V35H424.6ZM468.2 35V30H463.2V15H468.2V10H493.2V15H498.2V30H493.2V35H468.2ZM473.2 30H488.2V15H473.2V30ZM516.8 15H521.8V20H516.8V35H506.8V10H516.8V15ZM536.8 10V15H521.8V10H536.8ZM545.4 35V30H540.4V10H550.4V30H565.4V10H575.4V35H545.4ZM579 35V10H609V15H614V35H604V15H599V35H589V15H584V35H579Z"/>
</mask>
<path d="M0 35V0H25V5H30V10H35V25H30V30H25V35H0ZM10 30H20V25H25V10H20V5H10V30ZM53.6 5V0H63.6V5H53.6ZM43.6 35V30H53.6V15H48.6V10H63.6V30H73.6V35H43.6ZM77.2 35V30H102.2V25H82.2V20H77.2V15H82.2V10H107.2V15H87.2V20H107.2V25H112.2V30H107.2V35H77.2ZM120.8 35V30H115.8V15H120.8V10H150.8V15H125.8V30H150.8V35H120.8ZM159.4 35V30H154.4V10H164.4V30H179.4V10H189.4V35H159.4ZM193 35V30H218V25H198V20H193V15H198V10H223V15H203V20H223V25H228V30H223V35H193ZM231.6 35V30H256.6V25H236.6V20H231.6V15H236.6V10H261.6V15H241.6V20H261.6V25H266.6V30H261.6V35H231.6ZM285.2 5V0H295.2V5H285.2ZM275.2 35V30H285.2V15H280.2V10H295.2V30H305.2V35H275.2ZM313.8 35V30H308.8V15H313.8V10H338.8V15H343.8V30H338.8V35H313.8ZM318.8 30H333.8V15H318.8V30ZM347.4 35V10H377.4V15H382.4V35H372.4V15H357.4V35H347.4ZM424.6 35V0H459.6V5H434.6V15H454.6V20H434.6V35H424.6ZM468.2 35V30H463.2V15H468.2V10H493.2V15H498.2V30H493.2V35H468.2ZM473.2 30H488.2V15H473.2V30ZM516.8 15H521.8V20H516.8V35H506.8V10H516.8V15ZM536.8 10V15H521.8V10H536.8ZM545.4 35V30H540.4V10H550.4V30H565.4V10H575.4V35H545.4ZM579 35V10H609V15H614V35H604V15H599V35H589V15H584V35H579Z" fill="#FBF68A"/>
<path d="M0 35H-6V41H0V35ZM0 0V-6H-6V0H0ZM25 0H31V-6H25V0ZM25 5H19V11H25V5ZM30 5H36V-1H30V5ZM30 10H24V16H30V10ZM35 10H41V4H35V10ZM35 25V31H41V25H35ZM30 25V19H24V25H30ZM30 30V36H36V30H30ZM25 30V24H19V30H25ZM25 35V41H31V35H25ZM10 30H4V36H10V30ZM20 30V36H26V30H20ZM20 25V19H14V25H20ZM25 25V31H31V25H25ZM25 10H31V4H25V10ZM20 10H14V16H20V10ZM20 5H26V-1H20V5ZM10 5V-1H4V5H10ZM6 35V0H-6V35H6ZM0 6H25V-6H0V6ZM19 0V5H31V0H19ZM25 11H30V-1H25V11ZM24 5V10H36V5H24ZM30 16H35V4H30V16ZM29 10V25H41V10H29ZM35 19H30V31H35V19ZM24 25V30H36V25H24ZM30 24H25V36H30V24ZM19 30V35H31V30H19ZM25 29H0V41H25V29ZM10 36H20V24H10V36ZM26 30V25H14V30H26ZM20 31H25V19H20V31ZM31 25V10H19V25H31ZM25 4H20V16H25V4ZM26 10V5H14V10H26ZM20 -1H10V11H20V-1ZM4 5V30H16V5H4ZM53.6 5H47.6V11H53.6V5ZM53.6 0V-6H47.6V0H53.6ZM63.6 0H69.6V-6H63.6V0ZM63.6 5V11H69.6V5H63.6ZM43.6 35H37.6V41H43.6V35ZM43.6 30V24H37.6V30H43.6ZM53.6 30V36H59.6V30H53.6ZM53.6 15H59.6V9H53.6V15ZM48.6 15H42.6V21H48.6V15ZM48.6 10V4H42.6V10H48.6ZM63.6 10H69.6V4H63.6V10ZM63.6 30H57.6V36H63.6V30ZM73.6 30H79.6V24H73.6V30ZM73.6 35V41H79.6V35H73.6ZM59.6 5V0H47.6V5H59.6ZM53.6 6H63.6V-6H53.6V6ZM57.6 0V5H69.6V0H57.6ZM63.6 -1H53.6V11H63.6V-1ZM49.6 35V30H37.6V35H49.6ZM43.6 36H53.6V24H43.6V36ZM59.6 30V15H47.6V30H59.6ZM53.6 9H48.6V21H53.6V9ZM54.6 15V10H42.6V15H54.6ZM48.6 16H63.6V4H48.6V16ZM57.6 10V30H69.6V10H57.6ZM63.6 36H73.6V24H63.6V36ZM67.6 30V35H79.6V30H67.6ZM73.6 29H43.6V41H73.6V29ZM77.2 35H71.2V41H77.2V35ZM77.2 30V24H71.2V30H77.2ZM102.2 30V36H108.2V30H102.2ZM102.2 25H108.2V19H102.2V25ZM82.2 25H76.2V31H82.2V25ZM82.2 20H88.2V14H82.2V20ZM77.2 20H71.2V26H77.2V20ZM77.2 15V9H71.2V15H77.2ZM82.2 15V21H88.2V15H82.2ZM82.2 10V4H76.2V10H82.2ZM107.2 10H113.2V4H107.2V10ZM107.2 15V21H113.2V15H107.2ZM87.2 15V9H81.2V15H87.2ZM87.2 20H81.2V26H87.2V20ZM107.2 20H113.2V14H107.2V20ZM107.2 25H101.2V31H107.2V25ZM112.2 25H118.2V19H112.2V25ZM112.2 30V36H118.2V30H112.2ZM107.2 30V24H101.2V30H107.2ZM107.2 35V41H113.2V35H107.2ZM83.2 35V30H71.2V35H83.2ZM77.2 36H102.2V24H77.2V36ZM108.2 30V25H96.2V30H108.2ZM102.2 19H82.2V31H102.2V19ZM88.2 25V20H76.2V25H88.2ZM82.2 14H77.2V26H82.2V14ZM83.2 20V15H71.2V20H83.2ZM77.2 21H82.2V9H77.2V21ZM88.2 15V10H76.2V15H88.2ZM82.2 16H107.2V4H82.2V16ZM101.2 10V15H113.2V10H101.2ZM107.2 9H87.2V21H107.2V9ZM81.2 15V20H93.2V15H81.2ZM87.2 26H107.2V14H87.2V26ZM101.2 20V25H113.2V20H101.2ZM107.2 31H112.2V19H107.2V31ZM106.2 25V30H118.2V25H106.2ZM112.2 24H107.2V36H112.2V24ZM101.2 30V35H113.2V30H101.2ZM107.2 29H77.2V41H107.2V29ZM120.8 35H114.8V41H120.8V35ZM120.8 30H126.8V24H120.8V30ZM115.8 30H109.8V36H115.8V30ZM115.8 15V9H109.8V15H115.8ZM120.8 15V21H126.8V15H120.8ZM120.8 10V4H114.8V10H120.8ZM150.8 10H156.8V4H150.8V10ZM150.8 15V21H156.8V15H150.8ZM125.8 15V9H119.8V15H125.8ZM125.8 30H119.8V36H125.8V30ZM150.8 30H156.8V24H150.8V30ZM150.8 35V41H156.8V35H150.8ZM126.8 35V30H114.8V35H126.8ZM120.8 24H115.8V36H120.8V24ZM121.8 30V15H109.8V30H121.8ZM115.8 21H120.8V9H115.8V21ZM126.8 15V10H114.8V15H126.8ZM120.8 16H150.8V4H120.8V16ZM144.8 10V15H156.8V10H144.8ZM150.8 9H125.8V21H150.8V9ZM119.8 15V30H131.8V15H119.8ZM125.8 36H150.8V24H125.8V36ZM144.8 30V35H156.8V30H144.8ZM150.8 29H120.8V41H150.8V29ZM159.4 35H153.4V41H159.4V35ZM159.4 30H165.4V24H159.4V30ZM154.4 30H148.4V36H154.4V30ZM154.4 10V4H148.4V10H154.4ZM164.4 10H170.4V4H164.4V10ZM164.4 30H158.4V36H164.4V30ZM179.4 30V36H185.4V30H179.4ZM179.4 10V4H173.4V10H179.4ZM189.4 10H195.4V4H189.4V10ZM189.4 35V41H195.4V35H189.4ZM165.4 35V30H153.4V35H165.4ZM159.4 24H154.4V36H159.4V24ZM160.4 30V10H148.4V30H160.4ZM154.4 16H164.4V4H154.4V16ZM158.4 10V30H170.4V10H158.4ZM164.4 36H179.4V24H164.4V36ZM185.4 30V10H173.4V30H185.4ZM179.4 16H189.4V4H179.4V16ZM183.4 10V35H195.4V10H183.4ZM189.4 29H159.4V41H189.4V29ZM193 35H187V41H193V35ZM193 30V24H187V30H193ZM218 30V36H224V30H218ZM218 25H224V19H218V25ZM198 25H192V31H198V25ZM198 20H204V14H198V20ZM193 20H187V26H193V20ZM193 15V9H187V15H193ZM198 15V21H204V15H198ZM198 10V4H192V10H198ZM223 10H229V4H223V10ZM223 15V21H229V15H223ZM203 15V9H197V15H203ZM203 20H197V26H203V20ZM223 20H229V14H223V20ZM223 25H217V31H223V25ZM228 25H234V19H228V25ZM228 30V36H234V30H228ZM223 30V24H217V30H223ZM223 35V41H229V35H223ZM199 35V30H187V35H199ZM193 36H218V24H193V36ZM224 30V25H212V30H224ZM218 19H198V31H218V19ZM204 25V20H192V25H204ZM198 14H193V26H198V14ZM199 20V15H187V20H199ZM193 21H198V9H193V21ZM204 15V10H192V15H204ZM198 16H223V4H198V16ZM217 10V15H229V10H217ZM223 9H203V21H223V9ZM197 15V20H209V15H197ZM203 26H223V14H203V26ZM217 20V25H229V20H217ZM223 31H228V19H223V31ZM222 25V30H234V25H222ZM228 24H223V36H228V24ZM217 30V35H229V30H217ZM223 29H193V41H223V29ZM231.6 35H225.6V41H231.6V35ZM231.6 30V24H225.6V30H231.6ZM256.6 30V36H262.6V30H256.6ZM256.6 25H262.6V19H256.6V25ZM236.6 25H230.6V31H236.6V25ZM236.6 20H242.6V14H236.6V20ZM231.6 20H225.6V26H231.6V20ZM231.6 15V9H225.6V15H231.6ZM236.6 15V21H242.6V15H236.6ZM236.6 10V4H230.6V10H236.6ZM261.6 10H267.6V4H261.6V10ZM261.6 15V21H267.6V15H261.6ZM241.6 15V9H235.6V15H241.6ZM241.6 20H235.6V26H241.6V20ZM261.6 20H267.6V14H261.6V20ZM261.6 25H255.6V31H261.6V25ZM266.6 25H272.6V19H266.6V25ZM266.6 30V36H272.6V30H266.6ZM261.6 30V24H255.6V30H261.6ZM261.6 35V41H267.6V35H261.6ZM237.6 35V30H225.6V35H237.6ZM231.6 36H256.6V24H231.6V36ZM262.6 30V25H250.6V30H262.6ZM256.6 19H236.6V31H256.6V19ZM242.6 25V20H230.6V25H242.6ZM236.6 14H231.6V26H236.6V14ZM237.6 20V15H225.6V20H237.6ZM231.6 21H236.6V9H231.6V21ZM242.6 15V10H230.6V15H242.6ZM236.6 16H261.6V4H236.6V16ZM255.6 10V15H267.6V10H255.6ZM261.6 9H241.6V21H261.6V9ZM235.6 15V20H247.6V15H235.6ZM241.6 26H261.6V14H241.6V26ZM255.6 20V25H267.6V20H255.6ZM261.6 31H266.6V19H261.6V31ZM260.6 25V30H272.6V25H260.6ZM266.6 24H261.6V36H266.6V24ZM255.6 30V35H267.6V30H255.6ZM261.6 29H231.6V41H261.6V29ZM285.2 5H279.2V11H285.2V5ZM285.2 0V-6H279.2V0H285.2ZM295.2 0H301.2V-6H295.2V0ZM295.2 5V11H301.2V5H295.2ZM275.2 35H269.2V41H275.2V35ZM275.2 30V24H269.2V30H275.2ZM285.2 30V36H291.2V30H285.2ZM285.2 15H291.2V9H285.2V15ZM280.2 15H274.2V21H280.2V15ZM280.2 10V4H274.2V10H280.2ZM295.2 10H301.2V4H295.2V10ZM295.2 30H289.2V36H295.2V30ZM305.2 30H311.2V24H305.2V30ZM305.2 35V41H311.2V35H305.2ZM291.2 5V0H279.2V5H291.2ZM285.2 6H295.2V-6H285.2V6ZM289.2 0V5H301.2V0H289.2ZM295.2 -1H285.2V11H295.2V-1ZM281.2 35V30H269.2V35H281.2ZM275.2 36H285.2V24H275.2V36ZM291.2 30V15H279.2V30H291.2ZM285.2 9H280.2V21H285.2V9ZM286.2 15V10H274.2V15H286.2ZM280.2 16H295.2V4H280.2V16ZM289.2 10V30H301.2V10H289.2ZM295.2 36H305.2V24H295.2V36ZM299.2 30V35H311.2V30H299.2ZM305.2 29H275.2V41H305.2V29ZM313.8 35H307.8V41H313.8V35ZM313.8 30H319.8V24H313.8V30ZM308.8 30H302.8V36H308.8V30ZM308.8 15V9H302.8V15H308.8ZM313.8 15V21H319.8V15H313.8ZM313.8 10V4H307.8V10H313.8ZM338.8 10H344.8V4H338.8V10ZM338.8 15H332.8V21H338.8V15ZM343.8 15H349.8V9H343.8V15ZM343.8 30V36H349.8V30H343.8ZM338.8 30V24H332.8V30H338.8ZM338.8 35V41H344.8V35H338.8ZM318.8 30H312.8V36H318.8V30ZM333.8 30V36H339.8V30H333.8ZM333.8 15H339.8V9H333.8V15ZM318.8 15V9H312.8V15H318.8ZM319.8 35V30H307.8V35H319.8ZM313.8 24H308.8V36H313.8V24ZM314.8 30V15H302.8V30H314.8ZM308.8 21H313.8V9H308.8V21ZM319.8 15V10H307.8V15H319.8ZM313.8 16H338.8V4H313.8V16ZM332.8 10V15H344.8V10H332.8ZM338.8 21H343.8V9H338.8V21ZM337.8 15V30H349.8V15H337.8ZM343.8 24H338.8V36H343.8V24ZM332.8 30V35H344.8V30H332.8ZM338.8 29H313.8V41H338.8V29ZM318.8 36H333.8V24H318.8V36ZM339.8 30V15H327.8V30H339.8ZM333.8 9H318.8V21H333.8V9ZM312.8 15V30H324.8V15H312.8ZM347.4 35H341.4V41H347.4V35ZM347.4 10V4H341.4V10H347.4ZM377.4 10H383.4V4H377.4V10ZM377.4 15H371.4V21H377.4V15ZM382.4 15H388.4V9H382.4V15ZM382.4 35V41H388.4V35H382.4ZM372.4 35H366.4V41H372.4V35ZM372.4 15H378.4V9H372.4V15ZM357.4 15V9H351.4V15H357.4ZM357.4 35V41H363.4V35H357.4ZM353.4 35V10H341.4V35H353.4ZM347.4 16H377.4V4H347.4V16ZM371.4 10V15H383.4V10H371.4ZM377.4 21H382.4V9H377.4V21ZM376.4 15V35H388.4V15H376.4ZM382.4 29H372.4V41H382.4V29ZM378.4 35V15H366.4V35H378.4ZM372.4 9H357.4V21H372.4V9ZM351.4 15V35H363.4V15H351.4ZM357.4 29H347.4V41H357.4V29ZM424.6 35H418.6V41H424.6V35ZM424.6 0V-6H418.6V0H424.6ZM459.6 0H465.6V-6H459.6V0ZM459.6 5V11H465.6V5H459.6ZM434.6 5V-1H428.6V5H434.6ZM434.6 15H428.6V21H434.6V15ZM454.6 15H460.6V9H454.6V15ZM454.6 20V26H460.6V20H454.6ZM434.6 20V14H428.6V20H434.6ZM434.6 35V41H440.6V35H434.6ZM430.6 35V0H418.6V35H430.6ZM424.6 6H459.6V-6H424.6V6ZM453.6 0V5H465.6V0H453.6ZM459.6 -1H434.6V11H459.6V-1ZM428.6 5V15H440.6V5H428.6ZM434.6 21H454.6V9H434.6V21ZM448.6 15V20H460.6V15H448.6ZM454.6 14H434.6V26H454.6V14ZM428.6 20V35H440.6V20H428.6ZM434.6 29H424.6V41H434.6V29ZM468.2 35H462.2V41H468.2V35ZM468.2 30H474.2V24H468.2V30ZM463.2 30H457.2V36H463.2V30ZM463.2 15V9H457.2V15H463.2ZM468.2 15V21H474.2V15H468.2ZM468.2 10V4H462.2V10H468.2ZM493.2 10H499.2V4H493.2V10ZM493.2 15H487.2V21H493.2V15ZM498.2 15H504.2V9H498.2V15ZM498.2 30V36H504.2V30H498.2ZM493.2 30V24H487.2V30H493.2ZM493.2 35V41H499.2V35H493.2ZM473.2 30H467.2V36H473.2V30ZM488.2 30V36H494.2V30H488.2ZM488.2 15H494.2V9H488.2V15ZM473.2 15V9H467.2V15H473.2ZM474.2 35V30H462.2V35H474.2ZM468.2 24H463.2V36H468.2V24ZM469.2 30V15H457.2V30H469.2ZM463.2 21H468.2V9H463.2V21ZM474.2 15V10H462.2V15H474.2ZM468.2 16H493.2V4H468.2V16ZM487.2 10V15H499.2V10H487.2ZM493.2 21H498.2V9H493.2V21ZM492.2 15V30H504.2V15H492.2ZM498.2 24H493.2V36H498.2V24ZM487.2 30V35H499.2V30H487.2ZM493.2 29H468.2V41H493.2V29ZM473.2 36H488.2V24H473.2V36ZM494.2 30V15H482.2V30H494.2ZM488.2 9H473.2V21H488.2V9ZM467.2 15V30H479.2V15H467.2ZM516.8 15H510.8V21H516.8V15ZM521.8 15H527.8V9H521.8V15ZM521.8 20V26H527.8V20H521.8ZM516.8 20V14H510.8V20H516.8ZM516.8 35V41H522.8V35H516.8ZM506.8 35H500.8V41H506.8V35ZM506.8 10V4H500.8V10H506.8ZM516.8 10H522.8V4H516.8V10ZM536.8 10H542.8V4H536.8V10ZM536.8 15V21H542.8V15H536.8ZM521.8 15H515.8V21H521.8V15ZM521.8 10V4H515.8V10H521.8ZM516.8 21H521.8V9H516.8V21ZM515.8 15V20H527.8V15H515.8ZM521.8 14H516.8V26H521.8V14ZM510.8 20V35H522.8V20H510.8ZM516.8 29H506.8V41H516.8V29ZM512.8 35V10H500.8V35H512.8ZM506.8 16H516.8V4H506.8V16ZM510.8 10V15H522.8V10H510.8ZM530.8 10V15H542.8V10H530.8ZM536.8 9H521.8V21H536.8V9ZM527.8 15V10H515.8V15H527.8ZM521.8 16H536.8V4H521.8V16ZM545.4 35H539.4V41H545.4V35ZM545.4 30H551.4V24H545.4V30ZM540.4 30H534.4V36H540.4V30ZM540.4 10V4H534.4V10H540.4ZM550.4 10H556.4V4H550.4V10ZM550.4 30H544.4V36H550.4V30ZM565.4 30V36H571.4V30H565.4ZM565.4 10V4H559.4V10H565.4ZM575.4 10H581.4V4H575.4V10ZM575.4 35V41H581.4V35H575.4ZM551.4 35V30H539.4V35H551.4ZM545.4 24H540.4V36H545.4V24ZM546.4 30V10H534.4V30H546.4ZM540.4 16H550.4V4H540.4V16ZM544.4 10V30H556.4V10H544.4ZM550.4 36H565.4V24H550.4V36ZM571.4 30V10H559.4V30H571.4ZM565.4 16H575.4V4H565.4V16ZM569.4 10V35H581.4V10H569.4ZM575.4 29H545.4V41H575.4V29ZM579 35H573V41H579V35ZM579 10V4H573V10H579ZM609 10H615V4H609V10ZM609 15H603V21H609V15ZM614 15H620V9H614V15ZM614 35V41H620V35H614ZM604 35H598V41H604V35ZM604 15H610V9H604V15ZM599 15V9H593V15H599ZM599 35V41H605V35H599ZM589 35H583V41H589V35ZM589 15H595V9H589V15ZM584 15V9H578V15H584ZM584 35V41H590V35H584ZM585 35V10H573V35H585ZM579 16H609V4H579V16ZM603 10V15H615V10H603ZM609 21H614V9H609V21ZM608 15V35H620V15H608ZM614 29H604V41H614V29ZM610 35V15H598V35H610ZM604 9H599V21H604V9ZM593 15V35H605V15H593ZM599 29H589V41H599V29ZM595 35V15H583V35H595ZM589 9H584V21H589V9ZM578 15V35H590V15H578ZM584 29H579V41H584V29Z" fill="#1E3445" mask="url(#path-1-outside-1_846_276)"/>
</g>
<defs>
<filter id="filter0_d_846_276" x="0" y="0" width="618" height="39" filterUnits="userSpaceOnUse" color-interpolation-filters="sRGB">
<feFlood flood-opacity="0" result="BackgroundImageFix"/>
<feColorMatrix in="SourceAlpha" type="matrix" values="0 0 0 0 0 0 0 0 0 0 0 0 0 0 0 0 0 0 127 0" result="hardAlpha"/>
<feOffset dx="4" dy="4"/>
<feComposite in2="hardAlpha" operator="out"/>
<feColorMatrix type="matrix" values="0 0 0 0 0.117647 0 0 0 0 0.203922 0 0 0 0 0.270588 0 0 0 1 0"/>
<feBlend mode="normal" in2="BackgroundImageFix" result="effect1_dropShadow_846_276"/>
<feBlend mode="normal" in="SourceGraphic" in2="effect1_dropShadow_846_276" result="shape"/>
</filter>
</defs>
</svg>
