<svg width="17" height="17" viewBox="0 0 17 17" fill="none" xmlns="http://www.w3.org/2000/svg">
<path d="M12.0042 0.0410731C12.1702 0.1108 12.2897 0.260214 12.3229 0.43619L12.9837 4.01881L16.5663 4.67623C16.7422 4.70943 16.8917 4.82896 16.9614 4.99498C17.0311 5.16099 17.0112 5.35025 16.9083 5.49967L14.8397 8.50123L16.9083 11.4995C17.0112 11.6489 17.0311 11.8381 16.9614 12.0042C16.8917 12.1702 16.7422 12.2897 16.5663 12.3229L12.9837 12.9837L12.3229 16.5663C12.2897 16.7422 12.1702 16.8917 12.0042 16.9614C11.8381 17.0311 11.6489 17.0112 11.4995 16.9083L8.50123 14.8397L5.50299 16.9083C5.35357 17.0112 5.16432 17.0311 4.9983 16.9614C4.83228 16.8917 4.71275 16.7422 4.67955 16.5663L4.01881 12.9837L0.43619 12.3229C0.260214 12.2897 0.1108 12.1702 0.0410731 12.0042C-0.0286535 11.8381 -0.00873161 11.6489 0.0941981 11.4995L2.16275 8.50123L0.0941981 5.50299C-0.00873161 5.35357 -0.0286535 5.16432 0.0410731 4.9983C0.1108 4.83228 0.260214 4.71275 0.43619 4.67955L4.01881 4.01881L4.67955 0.43619C4.71275 0.260214 4.83228 0.1108 4.9983 0.0410731C5.16432 -0.0286535 5.35357 -0.00873161 5.50299 0.0941981L8.50123 2.16275L11.4995 0.0941981C11.6489 -0.00873161 11.8381 -0.0286535 12.0042 0.0410731ZM5.31373 8.50123C5.31373 7.65585 5.64955 6.8451 6.24733 6.24733C6.8451 5.64955 7.65585 5.31373 8.50123 5.31373C9.34661 5.31373 10.1574 5.64955 10.7551 6.24733C11.3529 6.8451 11.6887 7.65585 11.6887 8.50123C11.6887 9.34661 11.3529 10.1574 10.7551 10.7551C10.1574 11.3529 9.34661 11.6887 8.50123 11.6887C7.65585 11.6887 6.8451 11.3529 6.24733 10.7551C5.64955 10.1574 5.31373 9.34661 5.31373 8.50123ZM12.7512 8.50123C12.7512 7.37406 12.3035 6.29305 11.5064 5.49603C10.7094 4.699 9.6284 4.25123 8.50123 4.25123C7.37406 4.25123 6.29305 4.699 5.49603 5.49603C4.699 6.29305 4.25123 7.37406 4.25123 8.50123C4.25123 9.6284 4.699 10.7094 5.49603 11.5064C6.29305 12.3035 7.37406 12.7512 8.50123 12.7512C9.6284 12.7512 10.7094 12.3035 11.5064 11.5064C12.3035 10.7094 12.7512 9.6284 12.7512 8.50123Z" fill="white"/>
</svg>
