<svg width="42" height="36" viewBox="0 0 42 36" fill="none" xmlns="http://www.w3.org/2000/svg">
<path d="M0 18C0 22.7739 1.89642 27.3523 5.27208 30.7279C8.64773 34.1036 13.2261 36 18 36C22.78 36 27.36 34.12 30.8 30.8L27.8 27.8C26.5409 29.1334 25.0214 30.1942 23.3357 30.9167C21.65 31.6391 19.834 32.0078 18 32C5.52 32 -0.719999 16.92 8.1 8.1C16.92 -0.719999 32 5.54 32 18H26L34 26H34.2L42 18H36C36 13.2261 34.1036 8.64773 30.7279 5.27208C27.3523 1.89642 22.7739 0 18 0C13.2261 0 8.64773 1.89642 5.27208 5.27208C1.89642 8.64773 0 13.2261 0 18Z" fill="#8D8D8D"/>
</svg>
