<svg width="134" height="15" viewBox="0 0 134 15" fill="none" xmlns="http://www.w3.org/2000/svg">
<path d="M6.8906 8.0098H8.5996C8.5449 8.6615 8.3626 9.2425 8.0527 9.7529C7.7428 10.2588 7.3076 10.6576 6.7471 10.9492C6.1865 11.2409 5.5052 11.3867 4.7031 11.3867C4.0879 11.3867 3.5342 11.2773 3.042 11.0586C2.5498 10.8353 2.1283 10.5208 1.7773 10.1152C1.4264 9.7051 1.1576 9.2106 0.970699 8.6318C0.788399 8.0531 0.6973 7.4059 0.6973 6.6904V5.8633C0.6973 5.1478 0.790701 4.5007 0.977501 3.9219C1.1689 3.3431 1.4424 2.8486 1.7979 2.4385C2.1533 2.0238 2.5794 1.707 3.0762 1.4883C3.5775 1.2695 4.1403 1.1602 4.7646 1.1602C5.5576 1.1602 6.2275 1.306 6.7744 1.5977C7.3213 1.8893 7.7451 2.2926 8.0459 2.8076C8.3512 3.3226 8.5381 3.9128 8.6064 4.5781H6.8975C6.8519 4.1497 6.7516 3.7829 6.5967 3.4775C6.4463 3.1722 6.223 2.9398 5.9268 2.7803C5.6305 2.6162 5.2432 2.5342 4.7646 2.5342C4.3727 2.5342 4.0309 2.6071 3.7393 2.7529C3.4476 2.8988 3.2038 3.113 3.0078 3.3955C2.8118 3.6781 2.6637 4.0267 2.5635 4.4414C2.4678 4.8516 2.4199 5.321 2.4199 5.8496V6.6904C2.4199 7.1917 2.4632 7.6475 2.5498 8.0576C2.641 8.4632 2.7777 8.8118 2.96 9.1035C3.1468 9.3952 3.3838 9.6208 3.6709 9.7803C3.958 9.9398 4.3021 10.0195 4.7031 10.0195C5.1908 10.0195 5.585 9.9421 5.8857 9.7871C6.1911 9.6322 6.4212 9.4066 6.5762 9.1104C6.7357 8.8096 6.8405 8.4427 6.8906 8.0098ZM9.6797 7.6338V7.4766C9.6797 6.9434 9.7572 6.4489 9.9121 5.9932C10.0671 5.5329 10.2904 5.1341 10.582 4.7969C10.8783 4.4551 11.2383 4.1908 11.6621 4.0039C12.0905 3.8125 12.5736 3.7168 13.1113 3.7168C13.6536 3.7168 14.1367 3.8125 14.5605 4.0039C14.9889 4.1908 15.3512 4.4551 15.6475 4.7969C15.9437 5.1341 16.1693 5.5329 16.3242 5.9932C16.4792 6.4489 16.5566 6.9434 16.5566 7.4766V7.6338C16.5566 8.167 16.4792 8.6615 16.3242 9.1172C16.1693 9.5729 15.9437 9.9717 15.6475 10.3135C15.3512 10.6507 14.9912 10.915 14.5674 11.1064C14.1436 11.2933 13.6628 11.3867 13.125 11.3867C12.5827 11.3867 12.0973 11.2933 11.6689 11.1064C11.2451 10.915 10.8851 10.6507 10.5889 10.3135C10.2926 9.9717 10.0671 9.5729 9.9121 9.1172C9.7572 8.6615 9.6797 8.167 9.6797 7.6338ZM11.3271 7.4766V7.6338C11.3271 7.9665 11.3613 8.2809 11.4297 8.5771C11.498 8.8734 11.6051 9.1331 11.751 9.3564C11.8968 9.5798 12.0837 9.7552 12.3115 9.8828C12.5394 10.0104 12.8105 10.0742 13.125 10.0742C13.4303 10.0742 13.6947 10.0104 13.918 9.8828C14.1458 9.7552 14.3327 9.5798 14.4785 9.3564C14.6243 9.1331 14.7314 8.8734 14.7998 8.5771C14.8727 8.2809 14.9092 7.9665 14.9092 7.6338V7.4766C14.9092 7.1484 14.8727 6.8385 14.7998 6.5469C14.7314 6.2507 14.6221 5.9886 14.4717 5.7607C14.3258 5.5329 14.139 5.3551 13.9111 5.2275C13.6878 5.0954 13.4212 5.0293 13.1113 5.0293C12.8014 5.0293 12.5326 5.0954 12.3047 5.2275C12.0814 5.3551 11.8968 5.5329 11.751 5.7607C11.6051 5.9886 11.498 6.2507 11.4297 6.5469C11.3613 6.8385 11.3271 7.1484 11.3271 7.4766ZM19.5713 5.4326V11.25H17.9238V3.8535H19.4756L19.5713 5.4326ZM19.2773 7.2783L18.7441 7.2715C18.7487 6.7474 18.8216 6.2666 18.9629 5.8291C19.1087 5.3916 19.3092 5.0156 19.5645 4.7012C19.8242 4.3867 20.1341 4.1452 20.4941 3.9766C20.8542 3.8034 21.2552 3.7168 21.6973 3.7168C22.0527 3.7168 22.374 3.7669 22.6611 3.8672C22.9528 3.9629 23.2012 4.1201 23.4062 4.3389C23.6159 4.5576 23.7754 4.8424 23.8848 5.1934C23.9941 5.5397 24.0488 5.9658 24.0488 6.4717V11.25H22.3945V6.4648C22.3945 6.1094 22.3421 5.8291 22.2373 5.624C22.137 5.4144 21.9889 5.2663 21.793 5.1797C21.6016 5.0885 21.3623 5.043 21.0752 5.043C20.7926 5.043 20.5397 5.1022 20.3164 5.2207C20.0931 5.3392 19.904 5.501 19.749 5.7061C19.5986 5.9111 19.4824 6.1481 19.4004 6.417C19.3184 6.6859 19.2773 6.973 19.2773 7.2783ZM29.1211 3.8535V5.0566H24.9512V3.8535H29.1211ZM26.1543 2.042H27.8018V9.2061C27.8018 9.4339 27.8337 9.6094 27.8975 9.7324C27.9658 9.8509 28.0592 9.9307 28.1777 9.9717C28.2962 10.0127 28.4352 10.0332 28.5947 10.0332C28.7087 10.0332 28.818 10.0264 28.9229 10.0127C29.0277 9.999 29.112 9.9854 29.1758 9.9717L29.1826 11.2295C29.0459 11.2705 28.8864 11.307 28.7041 11.3389C28.5264 11.3708 28.3213 11.3867 28.0889 11.3867C27.7106 11.3867 27.3757 11.3206 27.084 11.1885C26.7923 11.0518 26.5645 10.8307 26.4004 10.5254C26.2363 10.2201 26.1543 9.8145 26.1543 9.3086V2.042ZM32.1562 3.8535V11.25H30.502V3.8535H32.1562ZM30.3926 1.9121C30.3926 1.6615 30.4746 1.4541 30.6387 1.29C30.8073 1.1214 31.0397 1.0371 31.3359 1.0371C31.6276 1.0371 31.8577 1.1214 32.0264 1.29C32.195 1.4541 32.2793 1.6615 32.2793 1.9121C32.2793 2.1582 32.195 2.3633 32.0264 2.5273C31.8577 2.6914 31.6276 2.7734 31.3359 2.7734C31.0397 2.7734 30.8073 2.6914 30.6387 2.5273C30.4746 2.3633 30.3926 2.1582 30.3926 1.9121ZM35.5947 5.4326V11.25H33.9473V3.8535H35.499L35.5947 5.4326ZM35.3008 7.2783L34.7676 7.2715C34.7721 6.7474 34.8451 6.2666 34.9863 5.8291C35.1322 5.3916 35.3327 5.0156 35.5879 4.7012C35.8477 4.3867 36.1576 4.1452 36.5176 3.9766C36.8776 3.8034 37.2786 3.7168 37.7207 3.7168C38.0762 3.7168 38.3975 3.7669 38.6846 3.8672C38.9762 3.9629 39.2246 4.1201 39.4297 4.3389C39.6393 4.5576 39.7988 4.8424 39.9082 5.1934C40.0176 5.5397 40.0723 5.9658 40.0723 6.4717V11.25H38.418V6.4648C38.418 6.1094 38.3656 5.8291 38.2607 5.624C38.1605 5.4144 38.0124 5.2663 37.8164 5.1797C37.625 5.0885 37.3857 5.043 37.0986 5.043C36.8161 5.043 36.5632 5.1022 36.3398 5.2207C36.1165 5.3392 35.9274 5.501 35.7725 5.7061C35.6221 5.9111 35.5059 6.1481 35.4238 6.417C35.3418 6.6859 35.3008 6.973 35.3008 7.2783ZM46.2041 9.5068V3.8535H47.8584V11.25H46.2998L46.2041 9.5068ZM46.4365 7.9688L46.9902 7.9551C46.9902 8.4518 46.9355 8.9098 46.8262 9.3291C46.7168 9.7438 46.5482 10.1061 46.3203 10.416C46.0924 10.7214 45.8008 10.9606 45.4453 11.1338C45.0898 11.3024 44.6637 11.3867 44.167 11.3867C43.807 11.3867 43.4766 11.3343 43.1758 11.2295C42.875 11.1247 42.6152 10.9629 42.3965 10.7441C42.1823 10.5254 42.016 10.2406 41.8975 9.8896C41.779 9.5387 41.7197 9.1195 41.7197 8.6318V3.8535H43.3672V8.6455C43.3672 8.9144 43.3991 9.14 43.4629 9.3223C43.5267 9.5 43.6133 9.6436 43.7227 9.7529C43.832 9.8623 43.9596 9.9398 44.1055 9.9854C44.2513 10.0309 44.4062 10.0537 44.5703 10.0537C45.0397 10.0537 45.4089 9.9626 45.6777 9.7803C45.9512 9.5934 46.1449 9.3428 46.2588 9.0283C46.3773 8.7139 46.4365 8.3607 46.4365 7.9688ZM52.8076 11.3867C52.2607 11.3867 51.7663 11.2979 51.3242 11.1201C50.8867 10.9378 50.513 10.6849 50.2031 10.3613C49.8978 10.0378 49.6631 9.6572 49.499 9.2197C49.335 8.7822 49.2529 8.3105 49.2529 7.8047V7.5312C49.2529 6.9525 49.3372 6.4284 49.5059 5.959C49.6745 5.4896 49.9092 5.0885 50.21 4.7559C50.5107 4.4186 50.8662 4.1611 51.2764 3.9834C51.6865 3.8057 52.1309 3.7168 52.6094 3.7168C53.138 3.7168 53.6006 3.8057 53.9971 3.9834C54.3936 4.1611 54.7217 4.4118 54.9814 4.7354C55.2458 5.0544 55.4417 5.4349 55.5693 5.877C55.7015 6.319 55.7676 6.8066 55.7676 7.3398V8.0439H50.0527V6.8613H54.1406V6.7314C54.1315 6.4352 54.0723 6.1572 53.9629 5.8975C53.8581 5.6377 53.6963 5.4281 53.4775 5.2686C53.2588 5.109 52.9671 5.0293 52.6025 5.0293C52.3291 5.0293 52.0853 5.0885 51.8711 5.207C51.6615 5.321 51.486 5.4873 51.3447 5.7061C51.2035 5.9248 51.0941 6.1891 51.0166 6.499C50.9437 6.8044 50.9072 7.1484 50.9072 7.5312V7.8047C50.9072 8.1283 50.9505 8.429 51.0371 8.707C51.1283 8.9805 51.2604 9.2197 51.4336 9.4248C51.6068 9.6299 51.8164 9.7917 52.0625 9.9102C52.3086 10.0241 52.5889 10.0811 52.9033 10.0811C53.2998 10.0811 53.653 10.0013 53.9629 9.8418C54.2728 9.6823 54.5417 9.4567 54.7695 9.165L55.6377 10.0059C55.4782 10.2383 55.2708 10.4616 55.0156 10.6758C54.7604 10.8854 54.4482 11.0563 54.0791 11.1885C53.7145 11.3206 53.2907 11.3867 52.8076 11.3867ZM62.549 9.6094L64.258 3.8535H65.311L65.023 5.5762L63.301 11.25H62.357L62.549 9.6094ZM61.544 3.8535L62.877 9.6367L62.986 11.25H61.934L59.931 3.8535H61.544ZM66.91 9.5684L68.202 3.8535H69.809L67.812 11.25H66.76L66.91 9.5684ZM65.488 3.8535L67.177 9.541L67.389 11.25H66.445L64.702 5.5693L64.415 3.8535H65.488ZM72.693 3.8535V11.25H71.039V3.8535H72.693ZM70.93 1.9121C70.93 1.6615 71.012 1.4541 71.176 1.29C71.344 1.1214 71.577 1.0371 71.873 1.0371C72.165 1.0371 72.395 1.1214 72.563 1.29C72.732 1.4541 72.816 1.6615 72.816 1.9121C72.816 2.1582 72.732 2.3633 72.563 2.5273C72.395 2.6914 72.165 2.7734 71.873 2.7734C71.577 2.7734 71.344 2.6914 71.176 2.5273C71.012 2.3633 70.93 2.1582 70.93 1.9121ZM77.889 3.8535V5.0566H73.719V3.8535H77.889ZM74.922 2.042H76.569V9.2061C76.569 9.4339 76.601 9.6094 76.665 9.7324C76.733 9.8509 76.827 9.9307 76.945 9.9717C77.064 10.0127 77.203 10.0332 77.362 10.0332C77.476 10.0332 77.586 10.0264 77.69 10.0127C77.795 9.999 77.88 9.9854 77.943 9.9717L77.95 11.2295C77.813 11.2705 77.654 11.307 77.472 11.3389C77.294 11.3708 77.089 11.3867 76.856 11.3867C76.478 11.3867 76.143 11.3206 75.852 11.1885C75.56 11.0518 75.332 10.8307 75.168 10.5254C75.004 10.2201 74.922 9.8145 74.922 9.3086V2.042ZM80.787 0.75V11.25H79.146V0.75H80.787ZM80.5 7.2783L79.967 7.2715C79.971 6.7611 80.042 6.2894 80.179 5.8564C80.32 5.4235 80.516 5.0475 80.767 4.7285C81.022 4.4049 81.327 4.1566 81.683 3.9834C82.038 3.8057 82.432 3.7168 82.865 3.7168C83.23 3.7168 83.558 3.7669 83.85 3.8672C84.146 3.9674 84.401 4.1292 84.615 4.3525C84.829 4.5713 84.991 4.8584 85.101 5.2139C85.215 5.5648 85.271 5.9932 85.271 6.499V11.25H83.617V6.4854C83.617 6.1299 83.565 5.8473 83.46 5.6377C83.36 5.4281 83.212 5.2777 83.016 5.1865C82.82 5.0908 82.58 5.043 82.298 5.043C82.002 5.043 81.74 5.1022 81.512 5.2207C81.288 5.3392 81.102 5.501 80.951 5.7061C80.801 5.9111 80.687 6.1481 80.609 6.417C80.536 6.6859 80.5 6.973 80.5 7.2783ZM98.232 6.1641V9.9648C98.091 10.1517 97.87 10.3568 97.569 10.5801C97.273 10.7988 96.879 10.988 96.387 11.1475C95.895 11.307 95.282 11.3867 94.548 11.3867C93.924 11.3867 93.352 11.2819 92.832 11.0723C92.312 10.8581 91.864 10.5459 91.485 10.1357C91.112 9.7256 90.822 9.2266 90.617 8.6387C90.412 8.0462 90.31 7.3717 90.31 6.6152V5.9248C90.31 5.1729 90.403 4.5029 90.59 3.915C90.781 3.3226 91.055 2.8213 91.41 2.4111C91.766 2.001 92.194 1.6911 92.695 1.4814C93.201 1.2673 93.773 1.1602 94.411 1.1602C95.227 1.1602 95.901 1.2969 96.435 1.5703C96.972 1.8392 97.387 2.2129 97.679 2.6914C97.97 3.1699 98.155 3.7168 98.232 4.332H96.551C96.496 3.9857 96.389 3.6758 96.229 3.4023C96.075 3.1289 95.851 2.9147 95.56 2.7598C95.272 2.6003 94.899 2.5205 94.438 2.5205C94.042 2.5205 93.693 2.5957 93.393 2.7461C93.092 2.8965 92.841 3.1175 92.641 3.4092C92.445 3.7008 92.297 4.0563 92.196 4.4756C92.096 4.8949 92.046 5.3734 92.046 5.9111V6.6152C92.046 7.1621 92.103 7.6475 92.217 8.0713C92.335 8.4951 92.504 8.8529 92.723 9.1445C92.946 9.4362 93.217 9.6572 93.536 9.8076C93.855 9.9535 94.215 10.0264 94.616 10.0264C95.008 10.0264 95.329 9.9945 95.58 9.9307C95.831 9.8623 96.029 9.7826 96.175 9.6914C96.325 9.5957 96.441 9.5046 96.523 9.418V7.4424H94.452V6.1641H98.232ZM99.654 7.6338V7.4766C99.654 6.9434 99.732 6.4489 99.887 5.9932C100.042 5.5329 100.265 5.1341 100.557 4.7969C100.853 4.4551 101.213 4.1908 101.637 4.0039C102.065 3.8125 102.548 3.7168 103.086 3.7168C103.628 3.7168 104.111 3.8125 104.535 4.0039C104.964 4.1908 105.326 4.4551 105.622 4.7969C105.918 5.1341 106.144 5.5329 106.299 5.9932C106.454 6.4489 106.531 6.9434 106.531 7.4766V7.6338C106.531 8.167 106.454 8.6615 106.299 9.1172C106.144 9.5729 105.918 9.9717 105.622 10.3135C105.326 10.6507 104.966 10.915 104.542 11.1064C104.118 11.2933 103.637 11.3867 103.1 11.3867C102.557 11.3867 102.072 11.2933 101.644 11.1064C101.22 10.915 100.86 10.6507 100.563 10.3135C100.267 9.9717 100.042 9.5729 99.887 9.1172C99.732 8.6615 99.654 8.167 99.654 7.6338ZM101.302 7.4766V7.6338C101.302 7.9665 101.336 8.2809 101.404 8.5771C101.473 8.8734 101.58 9.1331 101.726 9.3564C101.871 9.5798 102.058 9.7552 102.286 9.8828C102.514 10.0104 102.785 10.0742 103.1 10.0742C103.405 10.0742 103.669 10.0104 103.893 9.8828C104.12 9.7552 104.307 9.5798 104.453 9.3564C104.599 9.1331 104.706 8.8734 104.774 8.5771C104.847 8.2809 104.884 7.9665 104.884 7.6338V7.4766C104.884 7.1484 104.847 6.8385 104.774 6.5469C104.706 6.2507 104.597 5.9886 104.446 5.7607C104.3 5.5329 104.114 5.3551 103.886 5.2275C103.662 5.0954 103.396 5.0293 103.086 5.0293C102.776 5.0293 102.507 5.0954 102.279 5.2275C102.056 5.3551 101.871 5.5329 101.726 5.7607C101.58 5.9886 101.473 6.2507 101.404 6.5469C101.336 6.8385 101.302 7.1484 101.302 7.4766ZM107.598 7.6338V7.4766C107.598 6.9434 107.675 6.4489 107.83 5.9932C107.985 5.5329 108.208 5.1341 108.5 4.7969C108.796 4.4551 109.156 4.1908 109.58 4.0039C110.008 3.8125 110.492 3.7168 111.029 3.7168C111.572 3.7168 112.055 3.8125 112.479 4.0039C112.907 4.1908 113.269 4.4551 113.565 4.7969C113.862 5.1341 114.087 5.5329 114.242 5.9932C114.397 6.4489 114.475 6.9434 114.475 7.4766V7.6338C114.475 8.167 114.397 8.6615 114.242 9.1172C114.087 9.5729 113.862 9.9717 113.565 10.3135C113.269 10.6507 112.909 10.915 112.485 11.1064C112.062 11.2933 111.581 11.3867 111.043 11.3867C110.501 11.3867 110.015 11.2933 109.587 11.1064C109.163 10.915 108.803 10.6507 108.507 10.3135C108.211 9.9717 107.985 9.5729 107.83 9.1172C107.675 8.6615 107.598 8.167 107.598 7.6338ZM109.245 7.4766V7.6338C109.245 7.9665 109.279 8.2809 109.348 8.5771C109.416 8.8734 109.523 9.1331 109.669 9.3564C109.815 9.5798 110.002 9.7552 110.229 9.8828C110.457 10.0104 110.729 10.0742 111.043 10.0742C111.348 10.0742 111.613 10.0104 111.836 9.8828C112.064 9.7552 112.251 9.5798 112.396 9.3564C112.542 9.1331 112.649 8.8734 112.718 8.5771C112.791 8.2809 112.827 7.9665 112.827 7.6338V7.4766C112.827 7.1484 112.791 6.8385 112.718 6.5469C112.649 6.2507 112.54 5.9886 112.39 5.7607C112.244 5.5329 112.057 5.3551 111.829 5.2275C111.606 5.0954 111.339 5.0293 111.029 5.0293C110.719 5.0293 110.451 5.0954 110.223 5.2275C109.999 5.3551 109.815 5.5329 109.669 5.7607C109.523 5.9886 109.416 6.2507 109.348 6.5469C109.279 6.8385 109.245 7.1484 109.245 7.4766ZM120.593 3.8535H122.09V11.0449C122.09 11.7103 121.949 12.2754 121.666 12.7402C121.383 13.2051 120.989 13.5583 120.483 13.7998C119.978 14.0459 119.392 14.1689 118.727 14.1689C118.444 14.1689 118.13 14.1279 117.783 14.0459C117.441 13.9639 117.109 13.8317 116.785 13.6494C116.466 13.4717 116.2 13.237 115.985 12.9453L116.758 11.9746C117.022 12.2891 117.314 12.5192 117.633 12.665C117.952 12.8109 118.287 12.8838 118.638 12.8838C119.016 12.8838 119.337 12.8132 119.602 12.6719C119.87 12.5352 120.078 12.3324 120.224 12.0635C120.369 11.7946 120.442 11.4665 120.442 11.0791V5.5283L120.593 3.8535ZM115.568 7.6338V7.4902C115.568 6.9297 115.637 6.4193 115.773 5.959C115.91 5.4941 116.106 5.0954 116.361 4.7627C116.617 4.4255 116.926 4.168 117.291 3.9902C117.656 3.8079 118.068 3.7168 118.528 3.7168C119.007 3.7168 119.415 3.8034 119.752 3.9766C120.094 4.1497 120.379 4.3981 120.606 4.7217C120.834 5.0407 121.012 5.4235 121.14 5.8701C121.272 6.3122 121.37 6.8044 121.434 7.3467V7.8047C121.374 8.3333 121.274 8.8164 121.133 9.2539C120.992 9.6914 120.805 10.0697 120.572 10.3887C120.34 10.7077 120.053 10.9538 119.711 11.127C119.374 11.3001 118.975 11.3867 118.515 11.3867C118.063 11.3867 117.656 11.2933 117.291 11.1064C116.931 10.9196 116.621 10.6576 116.361 10.3203C116.106 9.9831 115.91 9.5866 115.773 9.1309C115.637 8.6706 115.568 8.1715 115.568 7.6338ZM117.216 7.4902V7.6338C117.216 7.971 117.248 8.2855 117.312 8.5771C117.38 8.8688 117.482 9.1263 117.619 9.3496C117.76 9.5684 117.938 9.7415 118.152 9.8691C118.371 9.9922 118.629 10.0537 118.925 10.0537C119.312 10.0537 119.629 9.9717 119.875 9.8076C120.126 9.6436 120.317 9.4225 120.449 9.1445C120.586 8.862 120.682 8.5475 120.736 8.2012V6.9639C120.709 6.695 120.652 6.4443 120.565 6.2119C120.483 5.9795 120.372 5.7767 120.23 5.6035C120.089 5.4258 119.911 5.2891 119.697 5.1934C119.483 5.0931 119.23 5.043 118.938 5.043C118.642 5.043 118.385 5.1068 118.166 5.2344C117.947 5.362 117.767 5.5374 117.626 5.7607C117.489 5.984 117.387 6.2438 117.318 6.54C117.25 6.8363 117.216 7.153 117.216 7.4902ZM125.562 0.75V11.25H123.908V0.75H125.562ZM130.628 11.3867C130.081 11.3867 129.587 11.2979 129.145 11.1201C128.707 10.9378 128.333 10.6849 128.023 10.3613C127.718 10.0378 127.483 9.6572 127.319 9.2197C127.155 8.7822 127.073 8.3105 127.073 7.8047V7.5312C127.073 6.9525 127.158 6.4284 127.326 5.959C127.495 5.4896 127.729 5.0885 128.03 4.7559C128.331 4.4186 128.687 4.1611 129.097 3.9834C129.507 3.8057 129.951 3.7168 130.43 3.7168C130.958 3.7168 131.421 3.8057 131.817 3.9834C132.214 4.1611 132.542 4.4118 132.802 4.7354C133.066 5.0544 133.262 5.4349 133.39 5.877C133.522 6.319 133.588 6.8066 133.588 7.3398V8.0439H127.873V6.8613H131.961V6.7314C131.952 6.4352 131.893 6.1572 131.783 5.8975C131.678 5.6377 131.517 5.4281 131.298 5.2686C131.079 5.109 130.787 5.0293 130.423 5.0293C130.149 5.0293 129.906 5.0885 129.691 5.207C129.482 5.321 129.306 5.4873 129.165 5.7061C129.024 5.9248 128.914 6.1891 128.837 6.499C128.764 6.8044 128.728 7.1484 128.728 7.5312V7.8047C128.728 8.1283 128.771 8.429 128.857 8.707C128.949 8.9805 129.081 9.2197 129.254 9.4248C129.427 9.6299 129.637 9.7917 129.883 9.9102C130.129 10.0241 130.409 10.0811 130.724 10.0811C131.12 10.0811 131.473 10.0013 131.783 9.8418C132.093 9.6823 132.362 9.4567 132.59 9.165L133.458 10.0059C133.299 10.2383 133.091 10.4616 132.836 10.6758C132.581 10.8854 132.269 11.0563 131.899 11.1885C131.535 11.3206 131.111 11.3867 130.628 11.3867Z" fill="#1F1F1F"/>
</svg>
