<svg width="1226" height="181" viewBox="0 0 1226 181" fill="none" xmlns="http://www.w3.org/2000/svg">
<path d="M87.5 181C70.6667 181 55.6667 177.167 42.5 169.5C29.5 161.667 19.25 151 11.75 137.5C4.41667 123.833 0.75 108.167 0.75 90.5C0.75 72.8333 4.41667 57.25 11.75 43.75C19.25 30.0833 29.5 19.4167 42.5 11.75C55.5 3.91666 70.4167 -3.09944e-06 87.25 -3.09944e-06C98.5833 -3.09944e-06 109.25 2.08333 119.25 6.24999C129.25 10.25 138.083 15.8333 145.75 23C153.583 30.1667 159.583 38.5 163.75 48L137.25 58.75C134.25 52.4167 130.167 46.8333 125 42C120 37 114.25 33.1667 107.75 30.5C101.25 27.8333 94.4167 26.5 87.25 26.5C76.25 26.5 66.4167 29.25 57.75 34.75C49.25 40.25 42.5 47.8333 37.5 57.5C32.6667 67 30.25 78 30.25 90.5C30.25 103 32.6667 114.083 37.5 123.75C42.5 133.417 49.3333 141 58 146.5C66.8333 152 76.8333 154.75 88 154.75C95.3333 154.75 102.167 153.333 108.5 150.5C115 147.5 120.75 143.417 125.75 138.25C130.917 133.083 135 127.083 138 120.25L164.5 131C160.333 140.833 154.417 149.583 146.75 157.25C139.083 164.75 130.167 170.583 120 174.75C109.833 178.917 99 181 87.5 181ZM187.164 178V2.99999H215.164V178H187.164ZM322.496 178L321.246 154.5V113.75C321.246 105.25 320.329 98.1667 318.496 92.5C316.829 86.6667 313.996 82.25 309.996 79.25C306.163 76.0833 300.996 74.5 294.496 74.5C288.496 74.5 283.246 75.75 278.746 78.25C274.246 80.75 270.413 84.6667 267.246 90L242.746 81C245.413 75.5 248.913 70.4167 253.246 65.75C257.746 60.9167 263.329 57.0833 269.996 54.25C276.829 51.4167 284.996 50 294.496 50C306.663 50 316.829 52.4167 324.996 57.25C333.163 61.9167 339.163 68.6667 342.996 77.5C346.996 86.3333 348.996 97 348.996 109.5L348.246 178H322.496ZM286.496 181C271.496 181 259.829 177.667 251.496 171C243.329 164.333 239.246 154.917 239.246 142.75C239.246 129.75 243.579 119.833 252.246 113C261.079 106.167 273.329 102.75 288.996 102.75H322.496V124.25H297.996C286.829 124.25 278.996 125.833 274.496 129C269.996 132 267.746 136.333 267.746 142C267.746 146.833 269.663 150.667 273.496 153.5C277.496 156.167 282.996 157.5 289.996 157.5C296.329 157.5 301.829 156.083 306.496 153.25C311.163 150.417 314.746 146.667 317.246 142C319.913 137.333 321.246 132.083 321.246 126.25H329.496C329.496 143.25 326.079 156.667 319.246 166.5C312.413 176.167 301.496 181 286.496 181ZM422.85 181C414.516 181 406.85 179.75 399.85 177.25C392.85 174.75 386.85 171.25 381.85 166.75C376.85 162.083 373.016 156.667 370.35 150.5L394.6 139.75C397.1 144.417 400.766 148.333 405.6 151.5C410.6 154.667 416.1 156.25 422.1 156.25C428.6 156.25 433.766 155.167 437.6 153C441.6 150.667 443.6 147.5 443.6 143.5C443.6 139.667 442.1 136.75 439.1 134.75C436.1 132.583 431.85 130.833 426.35 129.5L414.6 126.25C402.766 123.25 393.516 118.5 386.85 112C380.183 105.333 376.85 97.75 376.85 89.25C376.85 76.75 380.85 67.0833 388.85 60.25C397.016 53.4167 408.683 50 423.85 50C431.516 50 438.516 51.1667 444.85 53.5C451.35 55.6667 456.933 58.8333 461.6 63C466.266 67 469.516 71.75 471.35 77.25L448.1 87.75C446.433 83.5833 443.266 80.4167 438.6 78.25C433.933 75.9167 428.766 74.75 423.1 74.75C417.433 74.75 413.016 76 409.85 78.5C406.683 80.8333 405.1 84.1667 405.1 88.5C405.1 91 406.516 93.3333 409.35 95.5C412.183 97.5 416.266 99.1667 421.6 100.5L436.35 104C444.516 106 451.183 109.167 456.35 113.5C461.516 117.667 465.35 122.417 467.85 127.75C470.35 132.917 471.6 138.167 471.6 143.5C471.6 151 469.433 157.583 465.1 163.25C460.933 168.917 455.183 173.333 447.85 176.5C440.516 179.5 432.183 181 422.85 181ZM494.055 178V2.99999H522.055V178H494.055ZM578.805 178V114H606.805V178H578.805ZM578.805 114C578.805 104 577.638 96.3333 575.305 91C572.971 85.5 569.721 81.6667 565.555 79.5C561.555 77.3333 556.888 76.25 551.555 76.25C542.055 76.0833 534.721 79.1667 529.555 85.5C524.555 91.8333 522.055 100.917 522.055 112.75H511.305C511.305 99.5833 513.221 88.3333 517.055 79C521.055 69.5 526.638 62.3333 533.805 57.5C540.971 52.5 549.471 50 559.305 50C569.138 50 577.638 52 584.805 56C591.971 60 597.388 66.25 601.055 74.75C604.888 83.0833 606.805 94 606.805 107.5V114H578.805Z" fill="white" fill-opacity="0.57"/>
<path d="M716.162 181C699.329 181 684.329 177.167 671.162 169.5C658.162 161.667 647.912 151 640.412 137.5C633.079 123.833 629.412 108.167 629.412 90.5C629.412 72.8333 633.079 57.25 640.412 43.75C647.912 30.0833 658.162 19.4167 671.162 11.75C684.162 3.91666 699.079 -3.09944e-06 715.912 -3.09944e-06C727.245 -3.09944e-06 737.912 2.08333 747.912 6.24999C757.912 10.25 766.745 15.8333 774.412 23C782.245 30.1667 788.245 38.5 792.412 48L765.912 58.75C762.912 52.4167 758.829 46.8333 753.662 42C748.662 37 742.912 33.1667 736.412 30.5C729.912 27.8333 723.079 26.5 715.912 26.5C704.912 26.5 695.079 29.25 686.412 34.75C677.912 40.25 671.162 47.8333 666.162 57.5C661.329 67 658.912 78 658.912 90.5C658.912 103 661.329 114.083 666.162 123.75C671.162 133.417 677.995 141 686.662 146.5C695.495 152 705.495 154.75 716.662 154.75C723.995 154.75 730.829 153.333 737.162 150.5C743.662 147.5 749.412 143.417 754.412 138.25C759.579 133.083 763.662 127.083 766.662 120.25L793.162 131C788.995 140.833 783.079 149.583 775.412 157.25C767.745 164.75 758.829 170.583 748.662 174.75C738.495 178.917 727.662 181 716.162 181ZM873.326 181C860.826 181 849.66 178.25 839.826 172.75C830.16 167.083 822.576 159.333 817.076 149.5C811.576 139.667 808.826 128.333 808.826 115.5C808.826 102.667 811.493 91.3333 816.826 81.5C822.326 71.6667 829.91 64 839.576 58.5C849.243 52.8333 860.326 50 872.826 50C885.326 50 896.41 52.8333 906.076 58.5C915.743 64 923.243 71.6667 928.576 81.5C934.076 91.3333 936.826 102.667 936.826 115.5C936.826 128.333 934.16 139.667 928.826 149.5C923.493 159.333 915.993 167.083 906.326 172.75C896.66 178.25 885.66 181 873.326 181ZM873.326 155.25C880.16 155.25 886.243 153.583 891.576 150.25C896.91 146.75 901.076 142.083 904.076 136.25C907.076 130.25 908.576 123.333 908.576 115.5C908.576 107.667 906.993 100.833 903.826 95C900.826 89 896.66 84.3333 891.326 81C885.993 77.5 879.826 75.75 872.826 75.75C865.826 75.75 859.66 77.4167 854.326 80.75C848.993 84.0833 844.826 88.75 841.826 94.75C838.826 100.75 837.326 107.667 837.326 115.5C837.326 123.333 838.826 130.25 841.826 136.25C844.993 142.083 849.243 146.75 854.576 150.25C860.076 153.583 866.326 155.25 873.326 155.25ZM1051.34 178L1050.09 154.75V2.99999H1077.84V178H1051.34ZM1010.59 181C999.257 181 989.34 178.333 980.84 173C972.507 167.5 965.923 159.833 961.09 150C956.423 140.167 954.09 128.667 954.09 115.5C954.09 102.167 956.423 90.6667 961.09 81C965.923 71.1667 972.507 63.5833 980.84 58.25C989.34 52.75 999.257 50 1010.59 50C1021.09 50 1030.09 52.75 1037.59 58.25C1045.26 63.5833 1051.09 71.1667 1055.09 81C1059.09 90.6667 1061.09 102.167 1061.09 115.5C1061.09 128.667 1059.09 140.167 1055.09 150C1051.09 159.833 1045.26 167.5 1037.59 173C1030.09 178.333 1021.09 181 1010.59 181ZM1017.59 155.5C1023.92 155.5 1029.51 153.833 1034.34 150.5C1039.34 147 1043.17 142.25 1045.84 136.25C1048.67 130.25 1050.09 123.333 1050.09 115.5C1050.09 107.667 1048.67 100.75 1045.84 94.75C1043.17 88.75 1039.34 84.0833 1034.34 80.75C1029.51 77.4167 1023.84 75.75 1017.34 75.75C1010.67 75.75 1004.76 77.4167 999.59 80.75C994.423 84.0833 990.34 88.75 987.34 94.75C984.507 100.75 983.007 107.667 982.84 115.5C983.007 123.333 984.507 130.25 987.34 136.25C990.34 142.25 994.423 147 999.59 150.5C1004.92 153.833 1010.92 155.5 1017.59 155.5ZM1164.54 181C1152.38 181 1141.54 178.25 1132.04 172.75C1122.71 167.083 1115.29 159.333 1109.79 149.5C1104.46 139.667 1101.79 128.333 1101.79 115.5C1101.79 102.667 1104.54 91.3333 1110.04 81.5C1115.54 71.6667 1123.04 64 1132.54 58.5C1142.21 52.8333 1153.21 50 1165.54 50C1176.71 50 1186.79 52.9167 1195.79 58.75C1204.79 64.4167 1211.88 72.6667 1217.04 83.5C1222.38 94.3333 1225.04 107.25 1225.04 122.25H1126.79L1130.54 118.75C1130.54 126.417 1132.21 133.083 1135.54 138.75C1138.88 144.25 1143.29 148.5 1148.79 151.5C1154.29 154.5 1160.38 156 1167.04 156C1174.71 156 1181.04 154.333 1186.04 151C1191.04 147.5 1194.96 143 1197.79 137.5L1222.54 148C1219.04 154.667 1214.54 160.5 1209.04 165.5C1203.71 170.5 1197.29 174.333 1189.79 177C1182.46 179.667 1174.04 181 1164.54 181ZM1132.29 104.25L1128.29 100.75H1198.79L1195.04 104.25C1195.04 97.4167 1193.54 91.8333 1190.54 87.5C1187.54 83 1183.71 79.6667 1179.04 77.5C1174.54 75.1667 1169.79 74 1164.79 74C1159.79 74 1154.79 75.1667 1149.79 77.5C1144.79 79.6667 1140.63 83 1137.29 87.5C1133.96 91.8333 1132.29 97.4167 1132.29 104.25Z" fill="#F67B46" fill-opacity="0.62"/>
</svg>
