<svg width="13" height="14" viewBox="0 0 13 14" fill="none" xmlns="http://www.w3.org/2000/svg">
<path d="M4.57941 2.42504C4.96993 1.19424 6.549 1.15696 7.01201 2.31322L7.05119 2.42575L7.5782 4.08558C7.69898 4.46624 7.89415 4.81458 8.15055 5.10709C8.40695 5.39961 8.71862 5.62951 9.06453 5.78128L9.20624 5.83825L10.7474 6.40512C11.8903 6.82571 11.9249 8.52633 10.8519 9.02498L10.7474 9.06718L9.20624 9.63476C8.85267 9.76475 8.52911 9.97491 8.25738 10.2511C7.98565 10.5272 7.77209 10.8629 7.6311 11.2355L7.5782 11.3874L7.05184 13.048C6.66132 14.2788 5.08226 14.3161 4.6199 13.1605L4.57941 13.048L4.05305 11.3881C3.93236 11.0073 3.73722 10.6589 3.48082 10.3662C3.22441 10.0736 2.9127 9.84357 2.56672 9.69173L2.42566 9.63476L0.884472 9.06789C-0.259013 8.6473 -0.293624 6.94668 0.779984 6.44873L0.884472 6.40512L2.42566 5.83825C2.77911 5.70817 3.10255 5.49798 3.37416 5.22184C3.64577 4.9457 3.85924 4.61004 4.00016 4.23749L4.05305 4.08558L4.57941 2.42504ZM11.04 1.27081e-07C11.1622 -1.65964e-07 11.2819 0.036909 11.3856 0.106533C11.4892 0.176157 11.5727 0.275703 11.6264 0.393859L11.6578 0.476147L11.8863 1.19775L12.557 1.44391C12.6795 1.48871 12.7868 1.57165 12.8654 1.68221C12.944 1.79277 12.9904 1.92598 12.9987 2.06496C13.0069 2.20394 12.9767 2.34242 12.9118 2.46287C12.8469 2.58332 12.7502 2.68031 12.6341 2.74154L12.557 2.7753L11.887 3.02146L11.6584 3.74377C11.6168 3.87559 11.5397 3.99112 11.437 4.07573C11.3343 4.16033 11.2106 4.2102 11.0816 4.21901C10.9525 4.22783 10.824 4.19519 10.7122 4.12523C10.6004 4.05527 10.5104 3.95115 10.4536 3.82605L10.4222 3.74377L10.1937 3.02216L9.52297 2.776C9.40054 2.7312 9.29321 2.64827 9.21459 2.5377C9.13596 2.42714 9.08959 2.29393 9.08133 2.15495C9.07308 2.01598 9.10332 1.87749 9.16823 1.75704C9.23313 1.63659 9.32978 1.53961 9.44591 1.47838L9.52297 1.44462L10.193 1.19846L10.4216 0.476147C10.4656 0.337189 10.5489 0.216558 10.6598 0.131168C10.7707 0.0457783 10.9037 -8.81127e-05 11.04 1.27081e-07Z" fill="url(#paint0_radial_338_88)"/>
<defs>
<radialGradient id="paint0_radial_338_88" cx="0" cy="0" r="1" gradientUnits="userSpaceOnUse" gradientTransform="translate(6.5 7) rotate(90) scale(7 6.5)">
<stop stop-color="#A4B6F8"/>
<stop offset="1" stop-color="#199099"/>
</radialGradient>
</defs>
</svg>
