<svg width="19" height="16" viewBox="0 0 19 16" fill="none" xmlns="http://www.w3.org/2000/svg">
<path d="M3.79999 0H5.69999V1.5683H3.79999V0ZM7.59999 7.05734H11.4V8.62564H7.59999V7.05734ZM11.4 10.1939H7.59999V11.7622H11.4V10.1939Z" fill="white"/>
<path d="M13.3 1.5683H11.4V3.1366H7.6V1.5683H5.7V3.1366H3.8V5.48905H1.9V3.92075H0V5.48905H1.9V7.05734H3.8V8.62564H0V10.1939H3.8V11.7622H1.9V13.3305H0V14.8988H1.9V13.3305H3.8V15.683H15.2V13.3305H17.1V14.8988H19V13.3305H17.1V11.7622H15.2V10.1939H19V8.62564H15.2V7.05734H17.1V5.48905H19V3.92075H17.1V5.48905H15.2V3.1366H13.3V1.5683ZM5.7 14.1147V4.7049H13.3V14.1147H5.7ZM13.3 1.5683V0H15.2V1.5683H13.3Z" fill="white"/>
</svg>
