<svg width="12" height="15" viewBox="0 0 12 15" fill="none" xmlns="http://www.w3.org/2000/svg">
<path d="M4.4 10.95L5.33333 9.8625L3.9 8.25L5.33333 6.6375L4.4 5.55L2 8.25L4.4 10.95ZM7.6 10.95L10 8.25L7.6 5.55L6.66667 6.6375L8.1 8.25L6.66667 9.8625L7.6 10.95ZM0 15V1.5H4.13333C4.27778 1.05 4.51956 0.6875 4.85867 0.4125C5.19778 0.1375 5.57822 0 6 0C6.42178 0 6.80244 0.1375 7.142 0.4125C7.48156 0.6875 7.72311 1.05 7.86667 1.5H12V15H0ZM6 2.4375C6.14444 2.4375 6.264 2.38425 6.35867 2.27775C6.45333 2.17125 6.50044 2.037 6.5 1.875C6.49956 1.713 6.45222 1.57875 6.358 1.47225C6.26378 1.36575 6.14444 1.3125 6 1.3125C5.85556 1.3125 5.73622 1.36575 5.642 1.47225C5.54778 1.57875 5.50044 1.713 5.5 1.875C5.49956 2.037 5.54689 2.1715 5.642 2.2785C5.73711 2.3855 5.85644 2.4385 6 2.4375Z" fill="#2970FF"/>
</svg>
