<svg width="19" height="18" viewBox="0 0 19 18" fill="none" xmlns="http://www.w3.org/2000/svg">
<path d="M17.6697 8.33052L1.11697 0.0792214C0.987238 0.0145362 0.841513 -0.0113817 0.697345 0.0045884C0.553177 0.0205585 0.416713 0.0777358 0.304384 0.169236C0.197111 0.258869 0.117042 0.376558 0.0731795 0.509072C0.029317 0.641586 0.0233998 0.783671 0.056093 0.919354L1.0822 4.69096C1.65349 6.79079 3.56013 8.24801 5.7363 8.24801H9.80944C10.2237 8.24801 10.5596 8.58385 10.5596 8.99813C10.5596 9.41241 10.2237 9.74825 9.80944 9.74825H5.72631C3.55392 9.74825 1.64844 11.1976 1.06848 13.2912L0.0259972 17.0544C-0.00468075 17.1677 -0.00826181 17.2866 0.015542 17.4016C0.0393459 17.5165 0.0898705 17.6243 0.163053 17.7162C0.236236 17.8081 0.330034 17.8817 0.436907 17.9309C0.543779 17.9801 0.660743 18.0036 0.778395 17.9996C0.896177 17.9988 1.01215 17.9706 1.11697 17.917L17.6697 9.66574C17.793 9.60279 17.8964 9.50715 17.9686 9.38936C18.0408 9.27157 18.0791 9.13619 18.0791 8.99813C18.0791 8.86007 18.0408 8.72469 17.9686 8.6069C17.8964 8.48911 17.793 8.39347 17.6697 8.33052Z" fill="white"/>
</svg>
