<svg width="10" height="12" viewBox="0 0 10 12" fill="none" xmlns="http://www.w3.org/2000/svg">
<path d="M8.11111 6.5V2.8745C8.11114 2.83503 8.10424 2.79595 8.09082 2.75948C8.0774 2.72302 8.05771 2.68989 8.03289 2.662L6.63378 1.088C6.58382 1.03172 6.51603 1.00007 6.44533 1H1.26667C1.19594 1 1.12811 1.03161 1.0781 1.08787C1.0281 1.14413 1 1.22044 1 1.3V10.7C1 10.7796 1.0281 10.8559 1.0781 10.9121C1.12811 10.9684 1.19594 11 1.26667 11H5.44444" stroke="#4EF16C" stroke-width="1.5" stroke-linecap="round" stroke-linejoin="round"/>
<path d="M6.33334 1V2.7C6.33334 2.77956 6.36144 2.85587 6.41145 2.91213C6.46146 2.96839 6.52929 3 6.60001 3H8.11112M6.33334 9.5H9.00001M9.00001 9.5L7.66668 8M9.00001 9.5L7.66668 11" stroke="#4EF16C" stroke-width="1.5" stroke-linecap="round" stroke-linejoin="round"/>
</svg>
